<?xml version="1.0" standalone="no"?>
<!DOCTYPE svg PUBLIC "-//W3C//DTD SVG 20010904//EN"
 "http://www.w3.org/TR/2001/REC-SVG-20010904/DTD/svg10.dtd">
<svg version="1.0" xmlns="http://www.w3.org/2000/svg"
 width="800.000000pt" height="191.000000pt" viewBox="0 0 800.000000 191.000000"
 preserveAspectRatio="xMidYMid meet">

<g transform="translate(0.000000,191.000000) scale(0.100000,-0.100000)"
fill="#000000" stroke="none">
<path d="M522 1681 c-40 -126 -72 -231 -72 -235 0 -3 127 -6 283 -6 l283 0 68
218 c37 119 69 225 72 235 5 16 -13 17 -279 17 l-284 0 -71 -229z"/>
<path d="M1305 1893 c4 -13 485 -1302 532 -1430 4 -10 -49 -13 -246 -13 -138
0 -251 3 -251 8 1 4 43 170 94 370 51 199 90 365 87 367 -2 3 -107 5 -233 5
-208 0 -229 -2 -235 -17 -4 -10 -87 -274 -184 -588 l-177 -570 916 -3 c503 -1
917 0 920 3 2 2 -137 426 -311 942 l-315 938 -302 3 c-285 2 -302 1 -295 -15z"/>
<path d="M357 1153 c-8 -27 -90 -289 -181 -584 -91 -294 -166 -538 -166 -542
0 -4 127 -7 283 -7 l282 0 179 577 c99 318 181 584 184 591 3 9 -57 12 -282
12 l-285 0 -14 -47z"/>
<path d="M3632 649 c-118 -47 -194 -165 -194 -304 0 -89 14 -141 55 -201 112
-162 359 -187 486 -49 32 35 71 101 71 121 0 2 -23 4 -52 4 -48 0 -53 -3 -86
-41 -41 -47 -84 -69 -139 -69 -89 0 -156 39 -196 114 -17 32 -22 58 -22 116 0
122 54 196 162 221 87 20 169 -11 200 -76 16 -33 20 -35 65 -35 l48 0 0 105 0
105 -45 0 c-41 0 -45 -2 -45 -25 l0 -25 -41 27 c-35 23 -53 27 -127 30 -70 3
-97 -1 -140 -18z"/>
<path d="M2805 618 c0 -41 2 -43 33 -46 17 -2 32 -6 32 -10 -1 -4 -36 -108
-79 -232 -74 -212 -80 -225 -105 -228 -23 -3 -26 -8 -26 -43 l0 -39 115 0 115
0 0 40 c0 39 -1 40 -36 40 -39 0 -38 -5 -9 80 l12 35 105 3 104 3 17 -54 c22
-69 22 -65 -15 -69 -33 -3 -34 -4 -29 -63 1 -12 21 -15 121 -15 l120 0 0 39
c0 37 -2 40 -31 43 -31 3 -31 3 -104 213 -40 116 -75 220 -79 233 -7 20 -4 22
28 22 36 0 36 0 36 45 l0 45 -163 0 -162 0 0 -42z m195 -193 c16 -52 30 -100
30 -105 0 -6 -31 -10 -70 -10 -38 0 -70 3 -70 7 0 18 65 203 72 203 4 0 21
-43 38 -95z"/>
<path d="M4360 615 c0 -43 1 -45 30 -45 18 0 30 -5 29 -12 0 -7 -35 -112 -78
-233 -73 -208 -79 -220 -104 -223 -24 -3 -27 -7 -27 -43 l0 -39 115 0 115 0 0
40 c0 38 -2 40 -29 40 -17 0 -32 3 -34 8 -3 4 4 31 15 60 l19 52 104 0 103 0
16 -47 c22 -65 21 -73 -14 -73 -28 0 -30 -2 -30 -40 l0 -40 120 0 120 0 0 40
c0 37 -2 40 -29 40 -24 0 -31 6 -41 33 -6 17 -40 115 -75 217 -35 102 -66 193
-70 203 -6 14 -1 17 29 17 l36 0 0 45 0 45 -160 0 -160 0 0 -45z m157 -303
c-38 -2 -71 -1 -73 1 -2 2 13 53 33 113 l36 109 37 -110 37 -110 -70 -3z"/>
<path d="M5000 616 c0 -46 0 -46 35 -46 l35 0 -2 -232 -3 -233 -32 -3 c-31 -3
-33 -6 -33 -43 l0 -39 173 0 c241 0 324 28 388 128 39 61 49 101 49 194 0 144
-61 243 -178 289 -50 20 -80 23 -244 27 l-188 4 0 -46z m368 -62 c118 -49 165
-200 104 -338 -33 -74 -118 -115 -239 -116 l-53 0 0 235 0 235 75 0 c46 0 90
-6 113 -16z"/>
<path d="M5810 615 c0 -45 0 -45 35 -45 l35 0 0 -235 0 -235 -35 0 c-34 0 -35
-1 -35 -40 l0 -40 245 0 245 0 0 90 0 90 -50 0 -50 0 0 -50 0 -51 -102 3 -103
3 -3 102 -3 102 88 3 88 3 3 48 3 47 -90 0 -91 0 0 80 0 80 105 0 105 0 0 -40
0 -40 50 0 50 0 0 85 0 85 -245 0 -245 0 0 -45z"/>
<path d="M6520 615 c0 -45 0 -45 35 -45 l35 0 -2 -232 -3 -233 -32 -3 c-31 -3
-33 -6 -33 -43 l0 -39 125 0 125 0 0 40 c0 39 -1 40 -35 40 l-35 0 0 218 1
217 23 -60 c12 -33 49 -131 81 -217 55 -152 58 -158 85 -158 17 0 31 7 35 17
4 10 38 106 77 213 39 107 72 197 74 199 2 2 4 -93 4 -212 l0 -217 -35 0 c-34
0 -35 -1 -35 -40 l0 -40 125 0 125 0 0 39 c0 37 -2 40 -32 43 l-33 3 -3 233
-2 232 35 0 c35 0 35 0 35 45 l0 45 -119 0 -118 0 -63 -181 c-34 -99 -66 -177
-70 -172 -4 4 -33 86 -66 181 l-58 172 -123 0 -123 0 0 -45z"/>
<path d="M7442 618 c3 -38 6 -43 30 -46 22 -3 41 -25 107 -128 l81 -125 0
-109 0 -109 -37 -3 c-36 -3 -38 -5 -38 -38 l0 -35 138 -3 137 -3 0 41 0 40
-40 0 -40 0 0 109 0 110 80 123 c65 99 85 124 107 128 25 5 28 10 31 48 l3 42
-115 0 -116 0 0 -44 c0 -40 3 -45 25 -48 l25 -3 -44 -73 c-24 -41 -47 -74 -51
-74 -4 0 -27 33 -51 74 -43 71 -43 73 -21 78 18 5 23 14 25 48 l3 42 -121 0
-121 0 3 -42z"/>
</g>
</svg>
