<?xml version="1.0" encoding="utf-8"?>
<!-- Generator: Adobe Illustrator 26.0.1, SVG Export Plug-In . SVG Version: 6.00 Build 0)  -->
<svg version="1.1" id="Camada_1" xmlns="http://www.w3.org/2000/svg" xmlns:xlink="http://www.w3.org/1999/xlink" x="0px" y="0px"
	 viewBox="0 0 120 60" style="enable-background:new 0 0 120 60;" xml:space="preserve">
<style type="text/css">
	.st0{fill:#858889;}
	.st1{fill:#204873;}
	.st2{fill:none;stroke:#000000;stroke-miterlimit:10;}
</style>
<g>
	<g>
		<path class="st0" d="M41.15,29.33h1.36l0.08-10.38h-1.57v-1.59h9.53l0.08,3.56h-1.8l-0.12-1.98h-3.93l-0.04,4.18h3.87v1.7h-3.87
			l-0.04,4.49h4.12l0.15-2.21h1.82l-0.15,3.8h-9.49V29.33z"/>
		<path class="st0" d="M59.76,29.33h1.39c-0.15-0.15-0.27-0.29-0.39-0.46l-2.4-3.37l-2.56,3.37c-0.12,0.15-0.25,0.31-0.41,0.46h1.37
			v1.59h-4.73v-1.59h1.12l4.16-5.21l-3.8-5.17h-1.28v-1.59h5.31v1.59h-1.45c0.14,0.14,0.23,0.25,0.37,0.43l2.32,3.18l2.5-3.14
			c0.15-0.19,0.27-0.31,0.43-0.46h-1.47v-1.59h4.49v1.59h-1.03l-3.89,4.98l4.01,5.4h1.22v1.59h-5.31V29.33z"/>
		<path class="st0" d="M66.13,29.33h1.37l0.08-10.38h-1.45v-1.59h5.11c1.82,0,2.54,0.17,3.23,0.6c1.07,0.64,1.74,1.86,1.74,3.33
			c0,1.51-0.77,2.94-1.9,3.6c-0.83,0.48-1.49,0.64-2.63,0.64H69.7l-0.04,3.8h1.67v1.59h-5.19V29.33z M71.23,23.95
			c1.96,0,2.71-1.08,2.71-2.58c0-0.79-0.33-1.45-0.76-1.84c-0.56-0.48-1.24-0.58-2.25-0.58h-1.2l-0.04,5H71.23z"/>
		<path class="st0" d="M77.75,29.33h1.36l0.08-10.38h-1.57v-1.59h9.53l0.08,3.56h-1.8l-0.12-1.98h-3.93l-0.04,4.18h3.87v1.7h-3.87
			l-0.04,4.49h4.12l0.15-2.21h1.82l-0.15,3.8h-9.49V29.33z"/>
		<path class="st0" d="M89.1,29.33h1.34l0.08-10.38H89.1v-1.59h6.02c2.79,0,4.11,1.61,4.11,3.58c0,2.34-1.51,3.41-3.23,3.58v0.04
			c0.76,0.06,1.26,0.7,1.72,1.47l1.47,2.48c0.39,0.64,0.76,0.81,1.2,0.81h0.5v1.59h-1.26c-1.14,0-1.67-0.12-2.46-1.43l-1.86-3.16
			c-0.56-0.97-0.85-1.18-1.49-1.18h-1.16l-0.04,4.18h1.57v1.59H89.1V29.33z M94.35,23.45c1.53,0,2.59-0.81,2.59-2.27
			c0-1.41-0.87-2.23-2.44-2.23h-1.8l-0.04,4.49H94.35z"/>
		<path class="st0" d="M104.65,29.33h1.39l0.08-10.38h-3.16l-0.08,1.98h-1.94l0.08-3.56h12.3l0.08,3.56h-1.94l-0.08-1.98h-3.1
			l-0.08,10.38h1.57v1.59h-5.13V29.33z"/>
	</g>
</g>
<g>
	<g>
		<path class="st1" d="M44.34,41.38h0.93v1.21h-3.13v-1.21h0.69l2.2-6.31h-0.94v-1.21h4.47v1.21h-1.01l2.16,6.31h0.8v1.21h-3.31
			v-1.21h0.94l-0.53-1.59h-2.74L44.34,41.38z M45.24,38.58h1.98l-0.98-2.96L45.24,38.58z"/>
		<path class="st1" d="M59.24,36.77c-0.17-0.52-0.45-0.92-0.84-1.2c-0.39-0.28-0.85-0.42-1.4-0.42c-0.88,0-1.58,0.28-2.12,0.85
			c-0.54,0.56-0.81,1.31-0.81,2.23c0,0.92,0.27,1.66,0.81,2.22c0.54,0.56,1.24,0.84,2.12,0.84c0.54,0,1-0.12,1.38-0.37
			c0.37-0.24,0.69-0.64,0.96-1.17h1.52c-0.24,0.92-0.7,1.65-1.4,2.19c-0.69,0.54-1.51,0.81-2.46,0.81c-1.31,0-2.4-0.43-3.26-1.29
			c-0.86-0.86-1.29-1.94-1.29-3.24c0-1.33,0.42-2.42,1.26-3.27c0.84-0.85,1.9-1.27,3.19-1.27c0.52,0,0.98,0.08,1.39,0.23
			c0.41,0.15,0.73,0.38,0.98,0.66l-0.03-0.73h1.3v2.91H59.24z"/>
		<path class="st1" d="M65.01,41.38h0.93v1.21h-3.13v-1.21h0.69l2.2-6.31h-0.94v-1.21h4.47v1.21h-1.01l2.16,6.31h0.8v1.21h-3.31
			v-1.21h0.94l-0.53-1.59h-2.74L65.01,41.38z M65.92,38.58h1.98l-0.98-2.96L65.92,38.58z"/>
		<path class="st1" d="M76.76,33.86c1.6,0,2.81,0.37,3.65,1.12c0.83,0.75,1.25,1.83,1.25,3.25c0,1.42-0.42,2.5-1.25,3.24
			c-0.83,0.75-2.05,1.12-3.65,1.12h-3.51v-1.21h0.94v-6.31h-0.94v-1.21H76.76z M75.75,35.07v6.31h1.05c1.06,0,1.87-0.27,2.42-0.8
			c0.55-0.53,0.82-1.32,0.82-2.35c0-1.03-0.27-1.82-0.82-2.35c-0.55-0.53-1.35-0.8-2.42-0.8H75.75z"/>
		<path class="st1" d="M84.13,42.59v-1.21h0.94v-6.31h-0.94v-1.21h6.65v2.38h-1.36v-1.15h-2.79v2.18h2.34v1.31h-2.34v2.8h2.74v-1.37
			h1.41v2.58H84.13z"/>
		<path class="st1" d="M95.98,41.38h1.04v1.21H93.5v-1.21h0.94v-6.31H93.5v-1.21h3.4l1.72,5.01l1.73-5.01h3.27v1.21h-0.93v6.31h0.93
			v1.21h-3.52v-1.21h1.04v-5.9L99,41.43h-0.83l-2.18-5.95V41.38z"/>
		<path class="st1" d="M110.45,41.38h1.07v1.21h-3.71v-1.21h1.07v-2.81l-2.29-3.49h-0.69v-1.21h3.19v1.21h-0.69l1.33,2.17l1.31-2.17
			h-0.79v-1.21h3.17v1.21h-0.7l-2.27,3.49V41.38z"/>
	</g>
</g>
<g>
	<polygon class="st1" points="6.59,42.59 11.54,26.72 19.18,26.72 14.3,42.59 	"/>
	<polygon class="st1" points="20.14,23.51 22.07,17.24 14.43,17.24 12.47,23.53 20.14,23.51 	"/>
	<path class="st2" d="M26.95,26.72"/>
	<polygon class="st1" points="26.95,26.72 20.73,26.72 15.77,42.59 40.48,42.59 31.93,17.24 23.93,17.24 31.18,36.69 24.47,36.68 	
		"/>
</g>
</svg>
